<?xml version="1.0" encoding="UTF-8" standalone="no"?>
<!DOCTYPE svg PUBLIC "-//W3C//DTD SVG 1.1//EN" "http://www.w3.org/Graphics/SVG/1.1/DTD/svg11.dtd">
<svg width="100%" height="100%" viewBox="0 0 48 48" version="1.1" xmlns="http://www.w3.org/2000/svg">
    <g fill="#2080ff">
        <path d="M5.726,16.137C6.985,16.137 7.913,16.84 8.396,18.044L8.498,18.044C9.248,16.763 10.164,16.137 11.321,16.137C13.228,16.137 14.385,17.739 14.385,20.32L14.385,26.608C14.385,26.799 14.245,26.939 14.055,26.939L12.02,26.939C11.829,26.939 11.69,26.799 11.69,26.608L11.69,20.524C11.69,19.29 11.206,18.604 10.304,18.604C9.312,18.604 8.79,19.405 8.79,20.88L8.79,26.608C8.79,26.799 8.651,26.939 8.46,26.939L6.425,26.939C6.235,26.939 6.095,26.799 6.095,26.608L6.095,20.524C6.095,19.29 5.612,18.604 4.709,18.604C3.717,18.604 3.196,19.405 3.196,20.88L3.196,26.608C3.196,26.799 3.056,26.939 2.865,26.939L0.831,26.939C0.64,26.939 0.5,26.799 0.5,26.608L0.5,16.697C0.5,16.506 0.64,16.366 0.831,16.366L2.509,16.366C2.7,16.366 2.824,16.493 2.865,16.697L3.119,17.943L3.221,17.943C3.679,16.786 4.556,16.137 5.726,16.137L5.726,16.137Z"/>
        <path d="M24.264,16.697L24.264,26.608C24.264,26.799 24.124,26.939 23.933,26.939L22.255,26.939C22.051,26.939 21.943,26.812 21.899,26.608L21.644,25.362L21.542,25.362C21.085,26.545 20.195,27.168 18.999,27.168C17.092,27.168 15.922,25.604 15.922,23.048L15.922,16.697C15.922,16.506 16.062,16.366 16.253,16.366L18.287,16.366C18.478,16.366 18.618,16.506 18.618,16.697L18.618,22.844C18.618,24.052 19.101,24.714 20.017,24.714C21.034,24.714 21.568,23.951 21.568,22.488L21.568,16.697C21.568,16.506 21.708,16.366 21.899,16.366L23.933,16.366C24.124,16.366 24.264,16.506 24.264,16.697Z"/>
        <path d="M30.9,19.36C30.773,18.661 30.239,18.254 29.514,18.254C28.789,18.254 28.306,18.636 28.306,19.195C28.306,19.716 28.688,20.053 29.476,20.25L30.964,20.619C32.807,21.077 33.596,22.132 33.596,23.709C33.596,25.705 31.892,27.168 29.616,27.168C27.543,27.168 25.814,26.087 25.509,23.785C25.483,23.582 25.585,23.442 25.788,23.404L27.543,23.073C27.772,23.029 27.899,23.124 27.95,23.404C28.128,24.517 28.738,25.051 29.616,25.051C30.417,25.051 30.976,24.631 30.976,23.951C30.976,23.289 30.582,22.93 29.756,22.73L28.649,22.463C26.412,21.923 25.687,20.835 25.687,19.36C25.687,17.294 27.391,16.137 29.514,16.137C31.714,16.137 32.985,17.269 33.367,18.903C33.418,19.132 33.341,19.271 33.113,19.31L31.282,19.615C31.078,19.65 30.925,19.564 30.9,19.36L30.9,19.36Z"/>
        <path d="M36.189,12.38C37.053,12.38 37.765,12.965 37.765,13.956C37.765,14.923 37.053,15.533 36.189,15.533C35.324,15.533 34.612,14.923 34.612,13.956C34.612,12.965 35.324,12.38 36.189,12.38ZM34.841,26.608L34.841,16.697C34.841,16.506 34.981,16.366 35.172,16.366L37.206,16.366C37.397,16.366 37.537,16.506 37.537,16.697L37.537,26.608C37.537,26.799 37.397,26.939 37.206,26.939L35.172,26.939C34.981,26.939 34.841,26.799 34.841,26.608Z"/>
        <path d="M47.492,23.62C47.034,25.909 45.356,27.168 43.398,27.168C40.778,27.168 38.82,24.79 38.82,21.649C38.82,18.515 40.778,16.137 43.398,16.137C45.356,16.137 47.034,17.396 47.492,19.685C47.53,19.901 47.429,20.041 47.225,20.079L45.381,20.409C45.178,20.448 45.051,20.359 45,20.142C44.72,18.858 44.161,18.286 43.398,18.286C42.228,18.286 41.618,19.481 41.618,21.649C41.618,23.824 42.228,25.019 43.398,25.019C44.161,25.019 44.72,24.447 45,23.162C45.051,22.946 45.178,22.857 45.381,22.895L47.225,23.226C47.429,23.264 47.53,23.404 47.492,23.62L47.492,23.62Z"/>
        <path d="M34.896,32.253C35.024,32.545 35.392,32.545 35.964,32.431C37.49,32.101 39.422,32.075 39.753,32.533C40.071,33.003 39.371,34.806 38.545,36.127C38.24,36.635 38.113,36.953 38.367,37.194C38.431,37.271 38.52,37.296 38.621,37.309C38.927,37.309 39.321,37.004 39.689,36.661C40.49,35.962 41.113,35.073 41.456,34.07C41.8,33.104 41.965,31.745 41.609,31.224C41.266,30.729 39.931,30.399 38.901,30.411C37.82,30.411 36.778,30.678 35.837,31.174C35.252,31.491 34.719,31.847 34.896,32.253Z"/>
        <path d="M6.686,31.72C6.774,31.987 6.979,32.317 7.284,32.698C11.187,37.512 17.467,39.62 23.531,39.62C28.832,39.62 33.956,38.02 37.21,35.2C37.77,34.705 38.062,34.311 38.062,34.006C38.062,33.879 38.011,33.777 37.922,33.676C37.642,33.384 37.223,33.6 36.714,33.866C33.689,35.454 29.036,36.546 24.09,36.546C18.509,36.546 12.534,35.162 8.009,31.516C7.576,31.174 7.106,30.831 6.788,31.085C6.674,31.174 6.57,31.365 6.686,31.72L6.686,31.72Z"/>
    </g>
</svg>
