<?xml version="1.0" encoding="UTF-8" standalone="no"?>
<!DOCTYPE svg PUBLIC "-//W3C//DTD SVG 1.1//EN" "http://www.w3.org/Graphics/SVG/1.1/DTD/svg11.dtd">
<svg width="100%" height="100%" viewBox="0 0 48 48" version="1.1" xmlns="http://www.w3.org/2000/svg">
    <g fill="#2080ff">
        <path d="M39.371,38.074C22.035,46.324 11.277,39.422 4.39,35.229C3.964,34.965 3.24,35.291 3.868,36.013C6.162,38.795 13.682,45.5 23.496,45.5C33.317,45.5 39.16,40.141 39.891,39.206C40.617,38.279 40.104,37.768 39.37,38.074L39.371,38.074ZM44.239,35.386C43.774,34.779 41.408,34.666 39.92,34.849C38.429,35.027 36.191,35.938 36.386,36.485C36.486,36.69 36.69,36.598 37.714,36.506C38.741,36.403 41.617,36.04 42.217,36.824C42.819,37.613 41.299,41.372 41.022,41.978C40.754,42.584 41.124,42.74 41.628,42.337C42.125,41.933 43.024,40.888 43.628,39.409C44.227,37.922 44.593,35.847 44.239,35.386L44.239,35.386Z"/>
        <path d="M33.318,34.783C32.95,35.111 32.419,35.135 32.005,34.916C30.161,33.384 29.832,32.673 28.816,31.212C25.769,34.322 23.612,35.252 19.657,35.252C14.984,35.252 11.342,32.368 11.342,26.593C11.342,22.084 13.788,19.013 17.266,17.512C20.283,16.184 24.495,15.949 27.715,15.582L27.715,14.863C27.715,13.542 27.816,11.979 27.042,10.838C26.362,9.815 25.065,9.393 23.924,9.393C21.806,9.393 19.915,10.479 19.454,12.729C19.36,13.23 18.993,13.722 18.493,13.745L13.101,13.167C12.647,13.065 12.147,12.698 12.272,12.003C13.515,5.469 19.415,3.5 24.698,3.5C27.402,3.5 30.934,4.219 33.068,6.267C35.772,8.791 35.514,12.159 35.514,15.824L35.514,24.483C35.514,27.085 36.592,28.226 37.608,29.633C37.967,30.133 38.046,30.735 37.592,31.11C36.459,32.056 34.443,33.814 33.333,34.799L33.318,34.783ZM27.715,21.24L27.715,20.036C23.698,20.036 19.454,20.896 19.454,25.632C19.454,28.031 20.697,29.657 22.83,29.657C24.393,29.657 25.792,28.695 26.675,27.132C27.769,25.21 27.715,23.405 27.715,21.24Z"/>
    </g>
</svg>
