<?xml version="1.0" encoding="UTF-8" standalone="no"?>
<!DOCTYPE svg PUBLIC "-//W3C//DTD SVG 1.1//EN" "http://www.w3.org/Graphics/SVG/1.1/DTD/svg11.dtd">
<svg width="100%" height="100%" viewBox="0 0 48 48" version="1.1" xmlns="http://www.w3.org/2000/svg">
    <path fill="#2080ff" d="M47.5,13.518C47.5,13.048 47.493,12.572 47.48,12.102C47.454,11.07 47.389,10.032 47.206,9.014C47.023,7.983 46.717,7.017 46.24,6.077C45.77,5.156 45.157,4.308 44.425,3.576C43.694,2.845 42.846,2.232 41.925,1.762C40.985,1.285 40.026,0.978 38.994,0.796C37.976,0.613 36.938,0.554 35.907,0.521C35.43,0.515 34.954,0.508 34.484,0.502L13.516,0.502C13.046,0.502 12.57,0.508 12.1,0.521C11.068,0.548 10.031,0.613 9.012,0.796C7.981,0.985 7.015,1.285 6.081,1.768C5.154,2.238 4.312,2.852 3.581,3.583C2.85,4.314 2.23,5.156 1.76,6.083C1.283,7.023 0.977,7.983 0.794,9.021C0.611,10.039 0.552,11.077 0.52,12.108C0.513,12.578 0.507,13.048 0.5,13.518L0.5,34.479C0.5,34.949 0.507,35.425 0.52,35.895C0.546,36.927 0.611,37.965 0.794,38.983C0.977,40.014 1.283,40.981 1.76,41.921C2.23,42.841 2.843,43.69 3.575,44.421C4.306,45.152 5.154,45.765 6.075,46.235C7.015,46.712 7.974,47.019 9.006,47.202C10.024,47.384 11.062,47.443 12.093,47.476C12.563,47.489 13.04,47.495 13.51,47.495C14.071,47.502 14.633,47.495 15.194,47.495L34.471,47.495C34.941,47.495 35.417,47.489 35.887,47.476C36.918,47.45 37.956,47.384 38.975,47.202C40.006,47.019 40.972,46.712 41.906,46.235C42.826,45.765 43.675,45.152 44.406,44.421C45.137,43.69 45.751,42.848 46.221,41.921C46.697,40.981 47.004,40.021 47.187,38.983C47.369,37.965 47.428,36.927 47.461,35.895C47.474,35.425 47.48,34.949 47.48,34.479C47.487,33.918 47.48,33.356 47.48,32.795L47.48,15.202C47.5,14.641 47.5,14.08 47.5,13.518ZM34.908,31.084C34.908,31.678 34.901,32.22 34.777,32.814C34.653,33.395 34.431,33.937 34.092,34.427C33.752,34.916 33.315,35.314 32.806,35.615C32.29,35.922 31.748,36.091 31.174,36.209C30.09,36.424 29.353,36.476 28.654,36.339C27.982,36.202 27.414,35.895 26.957,35.478C26.285,34.858 25.86,34.022 25.769,33.154C25.665,32.129 26.004,31.039 26.768,30.229C27.153,29.825 27.642,29.505 28.295,29.25C28.974,28.989 29.725,28.826 30.88,28.597C31.187,28.539 31.487,28.473 31.794,28.415C32.192,28.336 32.538,28.232 32.812,27.892C33.093,27.553 33.093,27.135 33.093,26.73L33.093,16.377C33.093,15.588 32.741,15.372 31.983,15.516C31.442,15.62 19.829,17.964 19.829,17.964C19.176,18.12 18.941,18.336 18.941,19.152L18.941,34.316C18.941,34.91 18.908,35.452 18.784,36.046C18.66,36.627 18.438,37.168 18.099,37.658C17.759,38.148 17.322,38.546 16.813,38.846C16.297,39.153 15.755,39.329 15.181,39.447C14.097,39.662 13.36,39.714 12.661,39.577C11.989,39.44 11.421,39.127 10.964,38.709C10.292,38.089 9.9,37.253 9.802,36.385C9.698,35.36 10.004,34.27 10.775,33.461C11.16,33.056 11.649,32.736 12.302,32.481C12.981,32.22 13.732,32.057 14.887,31.829C15.194,31.77 15.494,31.705 15.801,31.646C16.199,31.568 16.545,31.463 16.819,31.124C17.094,30.784 17.126,30.386 17.126,29.981L17.126,12.5C17.126,12.265 17.146,12.108 17.159,12.03C17.218,11.664 17.361,11.344 17.629,11.123C17.851,10.94 18.138,10.809 18.497,10.731L18.504,10.731L32.486,7.898C32.61,7.872 33.615,7.695 33.733,7.682C34.49,7.617 34.914,8.113 34.914,8.916L34.908,31.084Z"/>
</svg>
