<?xml version="1.0" encoding="UTF-8" standalone="no"?>
<!DOCTYPE svg PUBLIC "-//W3C//DTD SVG 1.1//EN" "http://www.w3.org/Graphics/SVG/1.1/DTD/svg11.dtd">
<svg width="100%" height="100%" viewBox="0 0 48 48" version="1.1" xmlns="http://www.w3.org/2000/svg">
    <g fill="#2080ff">
        <path d="M9.629,40.229L9.629,7.771C9.629,5.657 8.371,5.2 6.943,5.029L6.943,4L21.343,4C28.429,4 35.743,6 35.743,11.943C35.743,16.114 32.029,19.143 27.514,19.314C35.457,19.314 41.057,24.114 41.057,31.257C41.057,39.314 34.6,44 23.114,44L6.943,44L6.943,42.971C8.314,42.8 9.629,42.343 9.629,40.229M27.4,12.057C27.4,7.714 24.371,5.657 21.457,5.657L20.371,5.657L20.371,19.029C23.571,19.029 27.4,17.086 27.4,12.057M21.8,42.343C24.143,42.343 29.514,40.686 29.514,31.257C29.514,21.657 22.2,20.686 20.371,20.686L20.371,42.343L21.8,42.343Z"/>
    </g>
</svg>
