<?xml version="1.0" encoding="UTF-8" standalone="no"?>
<!DOCTYPE svg PUBLIC "-//W3C//DTD SVG 1.1//EN" "http://www.w3.org/Graphics/SVG/1.1/DTD/svg11.dtd">
<svg width="100%" height="100%" viewBox="0 -8 48 48" version="1.1" xmlns="http://www.w3.org/2000/svg">
    <g fill="#2080ff">
        <path d="M6.676,10.126C6.676,8.248 6.707,6.051 8.565,6.051C9.824,6.051 10.328,7.249 10.328,8.688C10.328,11.205 7.872,14.482 6.833,16.12C6.014,17.798 6.014,19.836 6.046,21.754L10.801,21.754C10.926,19.996 10.926,19.197 11.745,17.718C12.375,16.599 13.099,15.56 13.792,14.482C15.02,12.564 15.87,10.766 15.87,8.248C15.87,2.814 12.532,0.657 8.659,0.657C4.283,0.657 1.449,4.532 1.669,10.126L6.676,10.126ZM11.052,31.343L11.021,24.511L5.699,24.511L5.699,31.343L11.052,31.343Z"/>
        <path d="M21.912,10.126C21.912,8.248 21.944,6.051 23.801,6.051C25.061,6.051 25.565,7.249 25.565,8.688C25.565,11.205 23.109,14.482 22.07,16.12C21.251,17.798 21.251,19.836 21.282,21.754L26.037,21.754C26.163,19.996 26.163,19.197 26.982,17.718C27.611,16.599 28.336,15.56 29.028,14.482C30.256,12.564 31.107,10.766 31.107,8.248C31.107,2.814 27.769,0.657 23.896,0.657C19.519,0.657 16.685,4.532 16.906,10.126L21.912,10.126ZM26.289,31.343L26.257,24.511L20.936,24.511L20.936,31.343L26.289,31.343Z"/>
        <path d="M37.149,10.126C37.149,8.248 37.18,6.051 39.038,6.051C40.297,6.051 40.801,7.249 40.801,8.688C40.801,11.205 38.345,14.482 37.306,16.12C36.487,17.798 36.487,19.836 36.519,21.754L41.273,21.754C41.399,19.996 41.399,19.197 42.218,17.718C42.848,16.599 43.572,15.56 44.265,14.482C45.493,12.564 46.343,10.766 46.343,8.248C46.343,2.814 43.005,0.657 39.132,0.657C34.755,0.657 31.922,4.532 32.142,10.126L37.149,10.126ZM41.525,31.343L41.494,24.511L36.172,24.511L36.172,31.343L41.525,31.343Z"/>
    </g>
</svg>
