<?xml version="1.0" encoding="UTF-8" standalone="no"?>
<!DOCTYPE svg PUBLIC "-//W3C//DTD SVG 1.1//EN" "http://www.w3.org/Graphics/SVG/1.1/DTD/svg11.dtd">
<svg width="100%" height="100%" viewBox="0 0 48 48" version="1.1" xmlns="http://www.w3.org/2000/svg">
    <g fill="#2080ff">
        <path d="M38.903,10.213C39.31,7.853 39.907,6.37 40.569,6.367L40.57,6.367C41.804,6.371 42.805,11.517 42.805,17.87C42.805,24.223 41.803,29.372 40.568,29.372C40.061,29.372 39.594,28.498 39.218,27.033C38.623,32.397 37.389,36.084 35.961,36.084C34.856,36.084 33.864,33.869 33.198,30.376C32.744,37.019 31.599,41.733 30.262,41.733C29.423,41.733 28.657,39.865 28.091,36.824C27.41,43.101 25.836,47.5 24,47.5C22.165,47.5 20.588,43.103 19.91,36.824C19.348,39.865 18.582,41.733 17.739,41.733C16.402,41.733 15.26,37.019 14.803,30.376C14.137,33.869 13.148,36.084 12.04,36.084C10.613,36.084 9.378,32.398 8.783,27.033C8.41,28.502 7.94,29.372 7.433,29.372C6.198,29.372 5.196,24.223 5.196,17.87C5.196,11.517 6.198,6.367 7.433,6.367C8.096,6.367 8.689,7.855 9.101,10.213C9.76,6.144 10.83,3.5 12.04,3.5C13.476,3.5 14.721,7.24 15.31,12.67C15.887,8.718 16.761,6.198 17.74,6.198C19.113,6.198 20.279,11.154 20.712,18.067C21.524,14.522 22.701,12.299 24.003,12.299C25.306,12.299 26.482,14.524 27.293,18.067C27.727,11.154 28.892,6.198 30.265,6.198C31.243,6.198 32.115,8.718 32.695,12.67C33.282,7.24 34.527,3.5 35.964,3.5C37.17,3.5 38.244,6.146 38.903,10.213ZM2,16.738C2,13.898 2.568,11.595 3.269,11.595C3.97,11.595 4.538,13.898 4.538,16.738C4.538,19.578 3.97,21.881 3.269,21.881C2.568,21.881 2,19.578 2,16.738ZM43.462,16.738C43.462,13.898 44.03,11.595 44.731,11.595C45.432,11.595 46,13.898 46,16.738C46,19.578 45.432,21.881 44.731,21.881C44.03,21.881 43.462,19.578 43.462,16.738Z"/>
    </g>
</svg>
