<?xml version="1.0" encoding="UTF-8" standalone="no"?>
<!DOCTYPE svg PUBLIC "-//W3C//DTD SVG 1.1//EN" "http://www.w3.org/Graphics/SVG/1.1/DTD/svg11.dtd">
<svg width="100%" height="100%" viewBox="0 0 48 48" version="1.1" xmlns="http://www.w3.org/2000/svg">
    <path fill="#2080ff" d="M37.901,21.333C30.326,16.835 17.831,16.421 10.6,18.616C9.439,18.968 8.211,18.313 7.859,17.151C7.507,15.99 8.162,14.763 9.324,14.41C17.625,11.889 31.424,12.376 40.145,17.553C41.189,18.173 41.532,19.522 40.913,20.565C40.293,21.609 38.943,21.953 37.901,21.333ZM35.133,28.6C28.818,24.718 19.188,23.593 11.716,25.861C10.747,26.153 9.724,25.607 9.43,24.64C9.138,23.671 9.684,22.651 10.652,22.356C19.187,19.765 29.797,21.02 37.05,25.477C37.912,26.008 38.183,27.136 37.653,27.996C37.121,28.859 35.994,29.129 35.133,28.6ZM32.764,34.883C27.245,31.51 20.3,30.748 12.119,32.617C11.331,32.797 10.546,32.304 10.366,31.515C10.185,30.727 10.677,29.941 11.467,29.762C20.419,27.715 28.097,28.596 34.292,32.381C34.982,32.803 35.2,33.705 34.777,34.396C34.355,35.088 33.454,35.305 32.764,34.883ZM0.5,24C0.5,36.979 11.022,47.5 24,47.5C36.979,47.5 47.5,36.979 47.5,24C47.5,11.021 36.979,0.5 24,0.5C11.022,0.5 0.5,11.021 0.5,24Z"/>
</svg>
