<?xml version="1.0" encoding="UTF-8" standalone="no"?>
<!DOCTYPE svg PUBLIC "-//W3C//DTD SVG 1.1//EN" "http://www.w3.org/Graphics/SVG/1.1/DTD/svg11.dtd">
<svg width="100%" height="100%" viewBox="0 0 48 48" version="1.1" xmlns="http://www.w3.org/2000/svg">
    <g fill="#2080ff">
        <path d="M24,47.5C11.028,47.5 0.5,36.972 0.5,24C0.5,11.028 11.028,0.5 24,0.5C36.972,0.5 47.5,11.028 47.5,24C47.5,36.972 36.972,47.5 24,47.5ZM38.462,24C38.462,16.01 31.99,9.538 24,9.538C16.01,9.538 9.538,16.01 9.538,24C9.538,31.99 16.01,38.462 24,38.462C31.99,38.462 38.462,31.99 38.462,24ZM36.654,24C36.654,30.992 30.992,36.654 24,36.654C17.009,36.654 11.346,30.992 11.346,24C11.346,17.009 17.009,11.346 24,11.346C30.992,11.346 36.654,17.009 36.654,24ZM32.587,24L19.029,16.317L19.029,31.683L32.587,24Z"/>
    </g>
</svg>
