<?xml version="1.0" encoding="UTF-8" standalone="no"?>
<!DOCTYPE svg PUBLIC "-//W3C//DTD SVG 1.1//EN" "http://www.w3.org/Graphics/SVG/1.1/DTD/svg11.dtd">
<svg width="1600px" height="350px" version="1.1" xmlns="http://www.w3.org/2000/svg" xmlns:xlink="http://www.w3.org/1999/xlink" xml:space="preserve" xmlns:serif="http://www.serif.com/" style="fill-rule:evenodd;clip-rule:evenodd;stroke-linejoin:round;stroke-miterlimit:2;">
    <rect id="Background" x="0" y="0" width="1600" height="350" style="fill:white;"/>
    <g id="Logo" transform="matrix(0.159033,0,0,0.159033,175,175)">
        <clipPath id="_clip1">
            <rect x="-786" y="-786" width="1572" height="1572"/>
        </clipPath>
        <g clip-path="url(#_clip1)">
            <g transform="matrix(1,0,0,1,-900,-900)">
                <g id="Background" transform="matrix(2,0,0,2,0,0)">
                    <rect x="0" y="0" width="900" height="900" style="fill:white;"/>
                </g>
                <g id="Logo" transform="matrix(2,0,0,2,0,0)">
                    <path d="M57,605L57,57L343.24,57L448.345,461.3L450.655,461.3L559.225,57L843,57L843,605L658.616,605L670.105,235.2L667.795,235.2L558.385,605L341.777,605L233.515,235.2L231.205,235.2L241.546,605L57,605Z" style="fill:rgb(180,180,180);fill-rule:nonzero;"/>
                    <g>
                        <rect x="57" y="657" width="186" height="186"/>
                        <rect x="357" y="657" width="186" height="186" style="fill:rgb(237,27,36);"/>
                        <rect x="657" y="657" width="186" height="186" style="fill:rgb(0,173,239);"/>
                    </g>
                </g>
            </g>
        </g>
    </g>
    <g id="Text" transform="matrix(0.674657,0,0,0.674657,45.0805,45.1569)">
        <g transform="matrix(224.763,0,0,224.763,440,283)">
            <path d="M0.25,0.008C0.329,0.008 0.382,-0.027 0.4,-0.093L0.411,-0.093L0.411,-0L0.548,-0L0.548,-0.744L0.409,-0.744L0.409,-0.447L0.399,-0.447C0.381,-0.511 0.327,-0.547 0.25,-0.547C0.126,-0.547 0.053,-0.462 0.053,-0.316L0.053,-0.223C0.053,-0.077 0.126,0.008 0.25,0.008ZM0.301,-0.107C0.232,-0.107 0.189,-0.153 0.189,-0.227L0.189,-0.316C0.189,-0.39 0.232,-0.435 0.301,-0.435C0.37,-0.435 0.412,-0.39 0.412,-0.316L0.412,-0.227C0.412,-0.153 0.37,-0.107 0.301,-0.107Z" style="fill:rgb(32,32,32);fill-rule:nonzero;"/>
        </g>
        <g transform="matrix(224.763,0,0,224.763,578.941,283)">
            <path d="M0.299,-0.239C0.299,-0.354 0.361,-0.412 0.488,-0.412C0.518,-0.412 0.553,-0.406 0.578,-0.396L0.578,-0.542C0.559,-0.549 0.531,-0.553 0.501,-0.553C0.399,-0.553 0.344,-0.507 0.321,-0.4L0.3,-0.4L0.3,-0.539L0.059,-0.539L0.059,-0.44L0.171,-0.44L0.171,-0.098L0.068,-0.098L0.068,-0L0.455,-0L0.455,-0.098L0.299,-0.098L0.299,-0.239Z" style="fill:rgb(32,32,32);fill-rule:nonzero;"/>
        </g>
        <g transform="matrix(224.763,0,0,224.763,717.881,283)">
            <path d="M0.426,-0.151C0.416,-0.116 0.374,-0.092 0.32,-0.092C0.25,-0.092 0.205,-0.138 0.205,-0.208L0.205,-0.237L0.552,-0.237L0.552,-0.312C0.552,-0.456 0.46,-0.55 0.318,-0.55C0.171,-0.55 0.074,-0.457 0.074,-0.315L0.074,-0.229C0.074,-0.076 0.164,0.012 0.32,0.012C0.445,0.012 0.541,-0.056 0.552,-0.151L0.426,-0.151ZM0.315,-0.446C0.383,-0.446 0.423,-0.4 0.423,-0.323L0.205,-0.323C0.205,-0.4 0.246,-0.446 0.315,-0.446Z" style="fill:rgb(32,32,32);fill-rule:nonzero;"/>
        </g>
        <g transform="matrix(224.763,0,0,224.763,856.822,283)">
            <path d="M0.317,-0.648C0.372,-0.648 0.409,-0.682 0.409,-0.733C0.409,-0.784 0.372,-0.817 0.317,-0.817C0.262,-0.817 0.226,-0.784 0.226,-0.733C0.226,-0.682 0.262,-0.648 0.317,-0.648ZM0.547,-0L0.547,-0.106L0.384,-0.106L0.384,-0.539L0.09,-0.539L0.09,-0.432L0.254,-0.432L0.254,-0.106L0.082,-0.106L0.082,-0L0.547,-0Z" style="fill:rgb(32,32,32);fill-rule:nonzero;"/>
        </g>
        <g transform="matrix(224.763,0,0,224.763,995.763,283)">
            <path d="M0.581,-0.418C0.581,-0.503 0.545,-0.55 0.479,-0.55C0.427,-0.55 0.39,-0.516 0.378,-0.458L0.364,-0.458C0.353,-0.517 0.319,-0.55 0.27,-0.55C0.217,-0.55 0.18,-0.516 0.168,-0.454L0.154,-0.454L0.154,-0.539L0.037,-0.539L0.037,-0L0.15,-0L0.15,-0.37C0.15,-0.409 0.171,-0.435 0.204,-0.435C0.235,-0.435 0.253,-0.412 0.253,-0.373L0.253,-0L0.365,-0L0.365,-0.37C0.365,-0.409 0.386,-0.435 0.418,-0.435C0.449,-0.435 0.468,-0.412 0.468,-0.373L0.468,-0L0.581,-0L0.581,-0.418Z" style="fill:rgb(32,32,32);fill-rule:nonzero;"/>
        </g>
        <g transform="matrix(224.763,0,0,224.763,1134.7,283)">
            <path d="M0.426,-0.151C0.416,-0.116 0.374,-0.092 0.32,-0.092C0.25,-0.092 0.205,-0.138 0.205,-0.208L0.205,-0.237L0.552,-0.237L0.552,-0.312C0.552,-0.456 0.46,-0.55 0.318,-0.55C0.171,-0.55 0.074,-0.457 0.074,-0.315L0.074,-0.229C0.074,-0.076 0.164,0.012 0.32,0.012C0.445,0.012 0.541,-0.056 0.552,-0.151L0.426,-0.151ZM0.315,-0.446C0.383,-0.446 0.423,-0.4 0.423,-0.323L0.205,-0.323C0.205,-0.4 0.246,-0.446 0.315,-0.446Z" style="fill:rgb(32,32,32);fill-rule:nonzero;"/>
        </g>
        <g transform="matrix(224.763,0,0,224.763,1273.64,283)">
            <path d="M0.198,-0.692L0.198,-0.533L0.058,-0.533L0.058,-0.426L0.198,-0.426L0.198,-0.17C0.198,-0.045 0.254,0.001 0.4,0.001C0.411,0.001 0.518,-0 0.523,-0.001L0.523,-0.106C0.517,-0.106 0.424,-0.105 0.411,-0.105C0.36,-0.105 0.331,-0.128 0.331,-0.169L0.331,-0.426L0.529,-0.426L0.529,-0.533L0.329,-0.533L0.329,-0.692L0.198,-0.692Z" style="fill:rgb(32,32,32);fill-rule:nonzero;"/>
        </g>
        <g transform="matrix(224.763,0,0,224.763,1412.58,283)">
            <path d="M0.236,0.009C0.307,0.009 0.363,-0.021 0.39,-0.072L0.401,-0.072L0.401,-0L0.528,-0L0.528,-0.365C0.528,-0.483 0.451,-0.549 0.313,-0.549C0.185,-0.549 0.096,-0.486 0.086,-0.388L0.216,-0.388C0.228,-0.422 0.262,-0.442 0.309,-0.442C0.364,-0.442 0.396,-0.415 0.396,-0.368L0.396,-0.325L0.27,-0.317C0.137,-0.308 0.066,-0.251 0.066,-0.154C0.066,-0.057 0.135,0.009 0.236,0.009ZM0.282,-0.098C0.23,-0.098 0.198,-0.124 0.198,-0.164C0.198,-0.205 0.23,-0.229 0.292,-0.233L0.396,-0.239L0.396,-0.2C0.396,-0.14 0.349,-0.098 0.282,-0.098Z" style="fill:rgb(32,32,32);fill-rule:nonzero;"/>
        </g>
        <g transform="matrix(224.763,0,0,224.763,1551.53,283)">
            <path d="M0.25,0.008C0.329,0.008 0.382,-0.027 0.4,-0.093L0.411,-0.093L0.411,-0L0.548,-0L0.548,-0.744L0.409,-0.744L0.409,-0.447L0.399,-0.447C0.381,-0.511 0.327,-0.547 0.25,-0.547C0.126,-0.547 0.053,-0.462 0.053,-0.316L0.053,-0.223C0.053,-0.077 0.126,0.008 0.25,0.008ZM0.301,-0.107C0.232,-0.107 0.189,-0.153 0.189,-0.227L0.189,-0.316C0.189,-0.39 0.232,-0.435 0.301,-0.435C0.37,-0.435 0.412,-0.39 0.412,-0.316L0.412,-0.227C0.412,-0.153 0.37,-0.107 0.301,-0.107Z" style="fill:rgb(32,32,32);fill-rule:nonzero;"/>
        </g>
        <g transform="matrix(224.763,0,0,224.763,1690.47,283)">
            <path d="M0.236,0.009C0.307,0.009 0.363,-0.021 0.39,-0.072L0.401,-0.072L0.401,-0L0.528,-0L0.528,-0.365C0.528,-0.483 0.451,-0.549 0.313,-0.549C0.185,-0.549 0.096,-0.486 0.086,-0.388L0.216,-0.388C0.228,-0.422 0.262,-0.442 0.309,-0.442C0.364,-0.442 0.396,-0.415 0.396,-0.368L0.396,-0.325L0.27,-0.317C0.137,-0.308 0.066,-0.251 0.066,-0.154C0.066,-0.057 0.135,0.009 0.236,0.009ZM0.282,-0.098C0.23,-0.098 0.198,-0.124 0.198,-0.164C0.198,-0.205 0.23,-0.229 0.292,-0.233L0.396,-0.239L0.396,-0.2C0.396,-0.14 0.349,-0.098 0.282,-0.098Z" style="fill:rgb(32,32,32);fill-rule:nonzero;"/>
        </g>
        <g transform="matrix(224.763,0,0,224.763,1829.41,283)">
            <path d="M0.198,-0.692L0.198,-0.533L0.058,-0.533L0.058,-0.426L0.198,-0.426L0.198,-0.17C0.198,-0.045 0.254,0.001 0.4,0.001C0.411,0.001 0.518,-0 0.523,-0.001L0.523,-0.106C0.517,-0.106 0.424,-0.105 0.411,-0.105C0.36,-0.105 0.331,-0.128 0.331,-0.169L0.331,-0.426L0.529,-0.426L0.529,-0.533L0.329,-0.533L0.329,-0.692L0.198,-0.692Z" style="fill:rgb(32,32,32);fill-rule:nonzero;"/>
        </g>
        <g transform="matrix(224.763,0,0,224.763,1968.35,283)">
            <path d="M0.426,-0.151C0.416,-0.116 0.374,-0.092 0.32,-0.092C0.25,-0.092 0.205,-0.138 0.205,-0.208L0.205,-0.237L0.552,-0.237L0.552,-0.312C0.552,-0.456 0.46,-0.55 0.318,-0.55C0.171,-0.55 0.074,-0.457 0.074,-0.315L0.074,-0.229C0.074,-0.076 0.164,0.012 0.32,0.012C0.445,0.012 0.541,-0.056 0.552,-0.151L0.426,-0.151ZM0.315,-0.446C0.383,-0.446 0.423,-0.4 0.423,-0.323L0.205,-0.323C0.205,-0.4 0.246,-0.446 0.315,-0.446Z" style="fill:rgb(32,32,32);fill-rule:nonzero;"/>
        </g>
        <g transform="matrix(224.763,0,0,224.763,2107.29,283)">
            <path d="M0.069,-0L0.203,-0L0.203,-0.311C0.203,-0.386 0.247,-0.433 0.315,-0.433C0.383,-0.433 0.415,-0.396 0.415,-0.316L0.415,-0L0.549,-0L0.549,-0.348C0.549,-0.479 0.486,-0.55 0.369,-0.55C0.292,-0.55 0.233,-0.513 0.207,-0.448L0.199,-0.448L0.199,-0.539L0.069,-0.539L0.069,-0Z" style="fill:rgb(32,32,32);fill-rule:nonzero;"/>
        </g>
    </g>
</svg>
